<mxfile host="app.diagrams.net" modified="2024-06-03T14:28:30.932Z" agent="Mozilla/5.0 (Windows NT 10.0; Win64; x64) AppleWebKit/537.36 (KHTML, like Gecko) Chrome/125.0.0.0 Safari/537.36" version="24.3.1" etag="gLtP7VC69-DkzewpT5iv" type="github">
  <diagram name="Page-1" id="huZhVjkYgVJXecX4dnu_">
    <mxGraphModel>
      <root>
        <mxCell id="0" />
        <mxCell id="1" parent="0" />
      </root>
    </mxGraphModel>
  </diagram>
</mxfile>
